<?xml version="1.0" encoding="UTF-8" standalone="no"?>
<!-- Created with Inkscape (http://www.inkscape.org/) -->

<svg
   width="5.8192177mm"
   height="4.7610145mm"
   viewBox="0 0 5.8192177 4.7610145"
   version="1.1"
   id="svg1"
   xml:space="preserve"
   inkscape:version="1.4 (e7c3feb1, 2024-10-09)"
   sodipodi:docname="BABEL.svg"
   xmlns:inkscape="http://www.inkscape.org/namespaces/inkscape"
   xmlns:sodipodi="http://sodipodi.sourceforge.net/DTD/sodipodi-0.dtd"
   xmlns="http://www.w3.org/2000/svg"
   xmlns:svg="http://www.w3.org/2000/svg"><sodipodi:namedview
     id="namedview1"
     pagecolor="#ffffff"
     bordercolor="#000000"
     borderopacity="0.25"
     inkscape:showpageshadow="2"
     inkscape:pageopacity="0.0"
     inkscape:pagecheckerboard="0"
     inkscape:deskcolor="#d1d1d1"
     inkscape:document-units="mm"
     showguides="false"
     inkscape:zoom="0.80920664"
     inkscape:cx="3101.8035"
     inkscape:cy="883.58148"
     inkscape:window-width="1560"
     inkscape:window-height="835"
     inkscape:window-x="19"
     inkscape:window-y="86"
     inkscape:window-maximized="0"
     inkscape:current-layer="layer1"
     inkscape:export-bgcolor="#00000000"><inkscape:page
       x="4.8308007e-14"
       y="0"
       width="5.8192182"
       height="4.7610145"
       id="page2"
       margin="0"
       bleed="0" /></sodipodi:namedview><defs
     id="defs1" /><g
     inkscape:label="Layer 1"
     inkscape:groupmode="layer"
     id="layer1"
     transform="translate(-893.00222,-275.38625)"><g
       style="fill:none;stroke:#ffffff;stroke-width:2;stroke-linecap:round;stroke-linejoin:round;stroke-opacity:1"
       id="g215"
       transform="matrix(0.26458333,0,0,0.26458333,892.73771,274.59152)"><path
         d="M 11,4.702 A 0.705,0.705 0 0 0 9.797,4.204 L 6.413,7.587 A 1.4,1.4 0 0 1 5.416,8 H 3 A 1,1 0 0 0 2,9 v 6 a 1,1 0 0 0 1,1 h 2.416 a 1.4,1.4 0 0 1 0.997,0.413 l 3.383,3.384 A 0.705,0.705 0 0 0 11,19.298 Z"
         id="path1-8"
         style="stroke:#ffffff;stroke-opacity:1" /><path
         d="m 16,9 a 5,5 0 0 1 0,6"
         id="path2-7"
         style="stroke:#ffffff;stroke-opacity:1" /><path
         d="m 19.364,18.364 a 9,9 0 0 0 0,-12.728"
         id="path3-7"
         style="stroke:#ffffff;stroke-opacity:1" /></g></g></svg>
