<?xml version="1.0" encoding="UTF-8" standalone="no"?>
<!-- Created with Inkscape (http://www.inkscape.org/) -->

<svg
   width="110.59571mm"
   height="127.46702mm"
   viewBox="0 0 110.59571 127.46702"
   version="1.1"
   id="svg1"
   xml:space="preserve"
   xmlns="http://www.w3.org/2000/svg"
   xmlns:svg="http://www.w3.org/2000/svg"><defs
     id="defs1" /><g
     id="layer1"
     transform="translate(-688.37344,131.08607)"><path
       style="fill:#ffffff"
       d="m 716.1547,-19.465455 -27.38438,-15.846375 -0.19844,-0.0029 -0.19843,-0.0029 0.004,-31.948436 0.004,-31.948435 27.62331,-15.935789 27.62332,-15.93579 27.07521,15.63784 27.07522,15.637839 0.59531,0.27427 0.59531,0.27428 -0.004,31.905963 -0.004,31.905966 -27.51753,15.874999 -27.51753,15.8749995 -0.19363,0.04043 -0.19364,0.04043 z m 27.25208,4.821593 v -10.282456 l -18.16738,-10.488116 -18.16739,-10.488117 -7.43105,4.284989 -7.43105,4.284989 -1.53563,0.896205 -1.53562,0.896204 26.93562,15.572648 26.93563,15.5726475 0.19843,0.01673 0.19844,0.01673 z m 27.71511,-5.33851 26.78906,-15.44829 v -0.146834 -0.146833 l -8.66401,-5.000134 -8.66402,-5.000134 -0.26567,5.92e-4 -0.26568,5.93e-4 -18.05781,10.425016 -18.05781,10.425015 v 10.271603 10.2716025 l 0.19844,-0.101953 0.19843,-0.101953 z m -9.54036,-15.632718 17.94088,-10.351603 0.33073,-0.264127 0.33073,-0.264126 v -20.851669 -20.851669 l -0.72761,-0.509116 -0.7276,-0.509117 -17.50382,-10.097707 -17.50381,-10.097696 -17.95035,10.357066 -17.95036,10.357077 -0.33073,0.264126 -0.33073,0.264127 v 20.837289 20.837289 l 0.37223,0.308923 0.37223,0.308924 17.81788,10.299362 17.81787,10.299362 0.0508,0.0074 0.0508,0.0074 z m -63.65775,-5.599445 8.83821,-5.103133 v -21.014567 -21.014568 l -8.83821,-5.103132 -8.8382,-5.103129 h -0.0915 -0.0915 v 31.220829 31.220832 h 0.0915 0.0915 z m 100.51634,-26.1177 v -31.220829 h -0.0915 -0.0915 l -8.8382,5.103129 -8.83821,5.103132 v 21.015017 21.015017 l 8.73125,5.07583 8.73125,5.07583 0.19844,0.02685 0.19844,0.02685 z m -71.74899,-32.803685 16.71565,-9.65264 v -10.27287 -10.27286 l -0.19844,0.10195 -0.19843,0.10195 -26.78907,15.4483 -26.78906,15.448286 v 0.14743 0.14742 l 8.78906,5.070479 8.78906,5.070475 1.48279,-0.842638 1.48278,-0.842638 z m 61.89586,6.586084 7.86875,-4.536378 0.86645,-0.52364 0.86645,-0.52364 -26.79562,-15.478276 -26.79561,-15.47827 -0.33073,-0.13482 -0.33073,-0.13482 v 10.31099 10.31099 l 18.05781,10.459576 18.05781,10.459579 0.33334,-0.09746 0.33334,-0.09746 z"
       id="path19" /></g></svg>
